<?xml version="1.0" encoding="UTF-8" standalone="no"?>
<svg width="44px" height="62px" viewBox="0 0 44 62" version="1.1" xmlns="http://www.w3.org/2000/svg" xmlns:xlink="http://www.w3.org/1999/xlink" xmlns:sketch="http://www.bohemiancoding.com/sketch/ns">
    <!-- Generator: Sketch 3.0.4 (8054) - http://www.bohemiancoding.com/sketch -->
    <title>map_icon 2</title>
    <desc>Created with Sketch.</desc>
    <defs></defs>
    <g id="Page-1" stroke="none" stroke-width="1" fill="none" fill-rule="evenodd" sketch:type="MSPage">
        <g id="icon_placemark-auto-part-marker-type" sketch:type="MSLayerGroup">
            <g id="Group" sketch:type="MSShapeGroup">
                <path d="M21.9989169,0 C9.8492591,0 0,9.37054061 0,20.9297098 C0,32.488879 9.8492591,41.8594196 21.9989169,41.8594196 C22.2241914,41.8594196 22.4472998,41.8507432 22.6725742,41.8442359 L14.9050429,62 L16.5957343,62 C16.5957343,62 37.5190272,40.3453832 42.0786688,29.4955119 C43.3068478,26.8817384 44,23.9838119 44,20.9297098 C44,9.37054061 34.1507409,0 21.9989169,0 Z" id="Path" opacity="0.960004664" fill="#FFFFFF"></path>
                <path d="M42.0269058,20.9299363 C42.0269058,10.5022145 33.0609884,1.97452229 21.9013453,1.97452229 C10.9390116,1.97452229 1.97309417,10.5022145 1.97309417,20.9299363 C1.97309417,31.5411365 10.9390116,40.0688287 21.9013453,40.0828025 C22.2040846,40.0688287 22.4071832,40.0609327 22.690583,40.0828025 L22.690583,40.0828025 L14.7982063,62 L16.7713004,62 C16.8446467,62 36.1271862,38.6909747 40.2511211,28.8280255 L40.2511211,28.8280255 C41.3959198,26.4383392 42.0269058,23.8010715 42.0269058,20.9299363 L42.0269058,20.9299363 Z" id="Path-2" fill="#F6CC2E"></path>
                <path d="M22,35.9363057 C13.6628509,35.9363057 6.9058296,29.52883 6.9058296,21.6210191 C6.9058296,13.7132082 13.6628509,7.30573248 22,7.30573248 C30.3371491,7.30573248 37.0941704,13.7132082 37.0941704,21.6210191 C37.0941704,29.52883 30.3371491,35.9363057 22,35.9363057 L22,35.9363057 Z" id="Shape" fill="#FFFFFF"></path>
                <ellipse id="Oval" fill="#F6CC2E" cx="22" cy="21.6210191" rx="8.18834081" ry="7.79936306"></ellipse>
            </g>
        </g>
    </g>
</svg>