<?xml version="1.0" encoding="UTF-8" standalone="no"?>
<svg width="49px" height="64px" viewBox="0 0 49 64" version="1.1" xmlns="http://www.w3.org/2000/svg" xmlns:xlink="http://www.w3.org/1999/xlink" xmlns:sketch="http://www.bohemiancoding.com/sketch/ns">
    <!-- Generator: Sketch 3.0.4 (8054) - http://www.bohemiancoding.com/sketch -->
    <title>icons 2</title>
    <desc>Created with Sketch.</desc>
    <defs></defs>
    <g id="Page-2" stroke="none" stroke-width="1" fill="none" fill-rule="evenodd" sketch:type="MSPage">
        <g id="map58-(1)" sketch:type="MSLayerGroup" transform="translate(1.000000, 1.000000)">
            <path d="M-0.0450631868,23.2602268 C-0.0450631868,28.4922598 1.69858516,33.3156041 4.64331593,37.2038351 L23.4492555,62.0272289 L42.2550659,37.2038351 C45.2000549,33.3156041 46.9434451,28.4923876 46.9434451,23.2602268 C46.9434451,10.4151052 36.4235797,0 23.4491264,0 C10.4748022,0 -0.0450631868,10.4151052 -0.0450631868,23.2602268 Z" id="Path" stroke="#FFFFFF" stroke-width="2" fill="#4990E2" sketch:type="MSShapeGroup"></path>
            <path d="M23.4491264,38.7668742 C14.7994478,38.7668742 7.78650549,31.8240247 7.78650549,23.2602268 C7.78650549,14.6966845 14.7994478,7.75332371 23.4491264,7.75332371 C32.0990632,7.75332371 39.1117473,14.6966845 39.1117473,23.2602268 C39.1117473,31.8241526 32.0991923,38.7668742 23.4491264,38.7668742 L23.4491264,38.7668742 Z" id="Shape" fill="#FFFFFF" sketch:type="MSShapeGroup"></path>
        </g>
    </g>
</svg>
